<svg width="298" height="57" viewBox="0 0 298 57" fill="none" xmlns="http://www.w3.org/2000/svg">
<path d="M28.2907 33.8378V56.8376L0.783691 40.3373L19.9568 28.8374L28.2907 33.8378Z" fill="#42AA32"/>
<path d="M55.7882 40.3373L28.291 56.8376V33.8378L36.625 28.8374L55.7882 40.3373Z" fill="#D70416"/>
<path d="M28.2907 0.837402V23.8372L19.9568 28.8376L0.783691 17.3377L28.2907 0.837402Z" fill="#F0B300"/>
<path d="M19.9568 28.8383L0.783691 40.3382V17.3384L19.9568 28.8383Z" fill="#225919"/>
<path d="M55.7877 17.3384V40.3382L36.6245 28.8383L55.7877 17.3384Z" fill="#000004"/>
<path d="M55.7882 17.3377L36.625 28.8376L28.291 23.8372V0.837402L55.7882 17.3377Z" fill="#2299D6"/>
<path fill-rule="evenodd" clip-rule="evenodd" d="M134.315 37.108V21.9825H130.785V37.108H134.315ZM122.454 34.8923C121.479 34.8923 120.903 34.3753 120.903 33.5777C120.903 32.7801 121.435 32.396 122.484 32.396H124.699V33.3709C124.478 34.272 123.532 34.8776 122.439 34.8776L122.454 34.8923ZM123.385 25.9559C121.553 25.9559 120.002 26.399 118.289 27.1966L119.293 29.5157C120.46 28.9248 121.657 28.5999 122.572 28.5999C124.005 28.5999 124.714 29.2498 124.714 30.3429V30.5053H121.819C119.086 30.5201 117.595 31.7461 117.595 33.8288C117.595 35.9115 119.013 37.2705 121.361 37.2705C122.853 37.2705 124.005 36.783 124.729 35.8377V37.108H128.171V29.9293C128.156 27.4477 126.398 25.9559 123.385 25.9559ZM115.645 26.1183H112.114V31.5393C112.114 33.0312 111.317 34.1242 109.973 34.1538C108.85 34.1538 108.141 33.3561 108.141 32.0563V26.1183H104.611V33.046C104.611 35.6161 106.162 37.2409 108.54 37.2409C110.135 37.2409 111.361 36.591 112.114 35.2764V37.0932H115.645V26.1036V26.1183ZM102.469 34.0652C101.937 34.2867 101.465 34.4344 101.095 34.4344C100.445 34.4492 100.076 34.0947 100.076 33.2232V28.9248H102.956V26.6058H100.076V23.563H96.5606V26.6206H95.0392V28.9248H96.5606V33.7845C96.5606 36.074 98.0968 37.2705 100.209 37.2705C101.273 37.2705 102.351 36.9898 103.148 36.5171L102.454 34.0652H102.469ZM90.8885 26.1183H87.3582V37.108H90.8885V31.4655C91.0658 29.9145 92.4247 28.9544 94.4483 29.1464V25.9706C92.8826 25.9854 91.6418 26.7092 90.8885 27.9943V26.1331V26.1183ZM84.5222 37.108V26.1183H81.0214V37.108H84.5222ZM82.794 21.0962C81.7157 21.0962 80.9328 21.8643 80.9328 22.9426C80.9328 24.0209 81.7157 24.8185 82.794 24.8185C83.8723 24.8185 84.6551 24.0504 84.6551 22.9426C84.6551 21.8347 83.8723 21.0962 82.794 21.0962ZM74.0791 37.108L79.6921 22.8392H75.955L72.3065 33.3414L68.6581 22.8392H64.7881L70.3272 37.108H74.0791Z" fill="#DC0000"/>
<path fill-rule="evenodd" clip-rule="evenodd" d="M286.043 36.237C286.9 36.237 287.668 36.0302 288.362 35.6314C289.042 35.2325 289.588 34.6712 289.987 33.9475C290.386 33.2237 290.578 32.4113 290.578 31.4807C290.578 30.5501 290.386 29.7377 289.987 29.0287C289.588 28.3049 289.056 27.7584 288.362 27.3596C287.683 26.9608 286.914 26.754 286.043 26.754C285.171 26.754 284.418 26.946 283.724 27.3596C283.03 27.7584 282.498 28.3197 282.099 29.0287C281.7 29.7377 281.508 30.5501 281.508 31.4807C281.508 32.4113 281.7 33.2237 282.099 33.9475C282.498 34.6712 283.03 35.2325 283.724 35.6314C284.403 36.0302 285.186 36.237 286.043 36.237ZM286.043 36.8426C285.068 36.8426 284.182 36.6062 283.384 36.1631C282.587 35.7052 281.966 35.0701 281.523 34.2576C281.065 33.4452 280.844 32.5147 280.844 31.4807C280.844 30.4467 281.065 29.5161 281.523 28.7037C281.966 27.8913 282.587 27.2562 283.384 26.7983C284.182 26.3404 285.068 26.104 286.043 26.104C287.018 26.104 287.934 26.3404 288.717 26.7983C289.499 27.2414 290.12 27.8913 290.578 28.7037C291.021 29.5161 291.242 30.4467 291.242 31.4807C291.242 32.5147 291.021 33.4305 290.578 34.2576C290.12 35.0701 289.514 35.7052 288.717 36.1631C287.934 36.621 287.033 36.8426 286.043 36.8426ZM277.18 23.4305C277.003 23.4305 276.841 23.3566 276.708 23.2385C276.575 23.1055 276.501 22.9578 276.501 22.7806C276.501 22.5885 276.56 22.4261 276.693 22.3079C276.826 22.1749 276.988 22.1159 277.166 22.1159C277.343 22.1159 277.505 22.1749 277.638 22.3079C277.771 22.4408 277.845 22.5885 277.845 22.7658C277.845 22.943 277.771 23.1055 277.638 23.2385C277.505 23.3714 277.343 23.4453 277.166 23.4453L277.18 23.4305ZM276.855 26.2074H277.52V36.7835H276.855V26.2074ZM267.121 36.237C267.978 36.237 268.746 36.0302 269.44 35.6314C270.135 35.2325 270.666 34.6712 271.065 33.9475C271.464 33.2237 271.656 32.4113 271.656 31.4807C271.656 30.5501 271.449 29.7377 271.065 29.0287C270.666 28.3049 270.135 27.7584 269.44 27.3596C268.761 26.9608 267.978 26.754 267.121 26.754C266.265 26.754 265.496 26.946 264.802 27.3596C264.108 27.7584 263.576 28.3197 263.177 29.0287C262.779 29.7377 262.587 30.5501 262.587 31.4807C262.587 32.4113 262.779 33.2237 263.177 33.9475C263.576 34.6712 264.108 35.2325 264.802 35.6314C265.482 36.0302 266.265 36.237 267.121 36.237ZM272.321 21.658V36.7835H271.671V33.8884C271.287 34.8189 270.666 35.5427 269.869 36.0597C269.056 36.5915 268.141 36.8426 267.107 36.8426C266.132 36.8426 265.26 36.6062 264.477 36.1631C263.68 35.7052 263.059 35.0701 262.601 34.2576C262.143 33.4452 261.922 32.5147 261.922 31.4807C261.922 30.4467 262.143 29.5161 262.601 28.7037C263.059 27.8913 263.68 27.2562 264.477 26.7983C265.26 26.3404 266.132 26.104 267.107 26.104C268.081 26.104 269.042 26.3699 269.854 26.8721C270.666 27.3891 271.257 28.1129 271.656 29.0139V21.6284H272.321V21.658ZM258.598 26.2074V36.7835H257.948V34.2133C257.624 35.0405 257.107 35.6904 256.383 36.1483C255.659 36.6062 254.802 36.8426 253.813 36.8426C252.439 36.8426 251.361 36.4585 250.593 35.7052C249.824 34.9519 249.44 33.8441 249.44 32.426V26.2074H250.105V32.3817C250.105 33.6373 250.43 34.5826 251.08 35.2473C251.73 35.912 252.646 36.237 253.842 36.237C255.112 36.237 256.102 35.8382 256.841 35.0701C257.579 34.2872 257.934 33.2384 257.934 31.9238V26.2074H258.613H258.598ZM246.56 36.1188C246.309 36.3551 245.999 36.5324 245.615 36.6506C245.231 36.7835 244.847 36.8426 244.433 36.8426C243.576 36.8426 242.912 36.6062 242.454 36.1188C241.981 35.6461 241.745 34.9814 241.745 34.1395V26.7983H239.751V26.2074H241.745V23.8884H242.409V26.2074H245.895V26.7983H242.409V34.0361C242.409 34.7599 242.587 35.3064 242.941 35.6904C243.296 36.0745 243.813 36.2665 244.492 36.2665C245.172 36.2665 245.733 36.0597 246.206 35.6314L246.56 36.1188ZM234.522 36.8426C233.665 36.8426 232.867 36.7096 232.099 36.4585C231.346 36.1927 230.755 35.8529 230.327 35.4393L230.652 34.9076C231.08 35.2916 231.641 35.6018 232.336 35.8677C233.015 36.1336 233.754 36.2517 234.522 36.2517C235.659 36.2517 236.501 36.0597 237.047 35.6757C237.594 35.2916 237.875 34.7451 237.875 34.0509C237.875 33.5634 237.727 33.1794 237.432 32.8839C237.136 32.6033 236.767 32.3817 236.338 32.2488C235.895 32.1158 235.319 31.9829 234.581 31.8352C233.724 31.6727 233.045 31.5102 232.528 31.333C232.011 31.1557 231.582 30.8751 231.228 30.5058C230.873 30.1218 230.696 29.6048 230.696 28.9253C230.696 28.1277 231.036 27.4482 231.686 26.9164C232.35 26.3847 233.31 26.104 234.566 26.104C235.216 26.104 235.866 26.2074 236.53 26.3995C237.18 26.6063 237.712 26.8574 238.126 27.1823L237.771 27.7141C237.358 27.3891 236.855 27.138 236.294 26.9755C235.733 26.813 235.157 26.7244 234.551 26.7244C233.502 26.7244 232.72 26.9312 232.188 27.33C231.656 27.7289 231.39 28.2606 231.39 28.9105C231.39 29.4275 231.538 29.8263 231.833 30.1365C232.129 30.4467 232.498 30.6535 232.941 30.8012C233.384 30.9489 233.99 31.0819 234.743 31.2444C235.556 31.3921 236.22 31.5546 236.723 31.717C237.225 31.8943 237.653 32.1602 237.993 32.5294C238.333 32.8987 238.51 33.4009 238.51 34.0656C238.51 34.9223 238.17 35.6018 237.476 36.104C236.782 36.6062 235.792 36.8574 234.477 36.8574L234.522 36.8426Z" fill="#DC0000"/>
<path fill-rule="evenodd" clip-rule="evenodd" d="M217.018 33.9618C215.63 33.9618 214.699 32.8539 214.699 31.2882C214.699 29.7225 215.63 28.5999 217.018 28.5999C218.407 28.5999 219.293 29.6782 219.293 31.2882C219.293 32.8982 218.377 33.9618 217.018 33.9618ZM222.808 26.1183H219.293V27.4625C218.554 26.5024 217.461 25.9706 216.058 26.0002C213.311 26.0002 211.405 28.0829 211.405 31.1996C211.405 34.3163 213.355 36.5171 216.132 36.5171C217.491 36.5171 218.584 35.9854 219.293 35.0548V36.2217C219.293 37.5954 218.274 38.4817 216.575 38.4817C215.393 38.4817 214.167 38.0681 213.163 37.3739L211.937 39.752C213.178 40.594 214.921 41.1996 216.826 41.1996C220.371 41.1996 222.779 39.2202 222.779 36.1036V26.1036L222.808 26.1183ZM205.792 25.9559C204.153 25.9706 202.897 26.6206 202.129 27.9056V26.1183H198.599V37.108H202.129V31.303C202.262 30.0031 203.089 29.0725 204.374 29.0725C205.556 29.0725 206.309 29.8702 206.309 31.1553V37.108H209.825V30.1804C209.825 27.6102 208.229 25.9559 205.807 25.9559H205.792ZM195.748 37.108V26.1183H192.232V37.108H195.748ZM194.02 21.0962C192.927 21.0962 192.158 21.8643 192.158 22.9426C192.158 24.0209 192.927 24.8185 194.02 24.8185C195.113 24.8185 195.866 24.0504 195.866 22.9426C195.866 21.8347 195.098 21.0962 194.02 21.0962ZM183.355 34.5231C181.878 34.5231 180.903 33.3414 180.888 31.6427C180.918 29.944 181.893 28.7919 183.355 28.7919C184.817 28.7919 185.807 29.9588 185.807 31.6427C185.807 33.3266 184.832 34.5231 183.355 34.5231ZM189.337 21.9825H185.807V27.5659C185.024 26.5467 183.872 25.9706 182.424 25.9706C179.381 25.9706 177.373 28.2011 177.373 31.5689C177.373 34.9366 179.411 37.2557 182.513 37.2557C183.916 37.2557 185.039 36.6796 185.822 35.6604V37.108H189.352V21.9825H189.337ZM175.349 37.108V21.9825H171.819V37.108H175.349ZM168.879 37.108V26.1183H165.364V37.108H168.879ZM167.151 21.0962C166.073 21.0962 165.305 21.8643 165.305 22.9426C165.305 24.0209 166.073 24.8185 167.151 24.8185C168.229 24.8185 169.012 24.0504 169.012 22.9426C169.012 21.8347 168.244 21.0962 167.151 21.0962ZM162.557 26.1183H159.027V31.5393C159.027 33.0312 158.229 34.1242 156.885 34.1538C155.763 34.1538 155.054 33.3561 155.054 32.0563V26.1183H151.523V33.046C151.523 35.6161 153.074 37.2409 155.452 37.2409C157.048 37.2409 158.274 36.591 159.027 35.2764V37.0932H162.557V26.1036V26.1183ZM140.903 31.1553H143.842C145.187 31.1553 146.029 31.7461 146.029 32.7062C146.029 33.7254 145.187 34.3163 143.842 34.3163H140.903V31.1553ZM140.903 25.6014H143.842C144.906 25.6014 145.585 26.1331 145.585 27.0489C145.585 27.9647 144.906 28.5408 143.842 28.5408H140.903V25.6014ZM137.299 22.8392V37.108H144.286C147.653 37.108 149.78 35.5718 149.78 33.1494C149.78 31.303 148.643 29.885 146.841 29.5452C148.348 29.1169 149.293 27.9056 149.293 26.4138C149.293 24.2277 147.255 22.8392 144.049 22.8392H137.299Z" fill="#DC0000"/>
<path fill-rule="evenodd" clip-rule="evenodd" d="M194.552 49.1913C194.552 49.3833 194.581 49.531 194.626 49.6049C194.685 49.6935 194.803 49.7378 195.01 49.7378C195.157 49.7378 195.305 49.7083 195.438 49.664C195.571 49.6049 195.704 49.531 195.807 49.4424C195.926 49.3538 196.014 49.2356 196.073 49.1174C196.132 48.9993 196.177 48.8516 196.177 48.7039C196.177 48.6152 196.177 48.5414 196.147 48.4527C196.147 48.3641 196.103 48.2755 196.058 48.2164C196.014 48.1426 195.955 48.0835 195.896 48.0392C195.822 47.9948 195.734 47.9653 195.63 47.9653C195.468 47.9653 195.305 47.9948 195.172 48.0687C195.039 48.1426 194.921 48.246 194.832 48.3641C194.744 48.4823 194.67 48.6152 194.611 48.7629C194.567 48.9107 194.537 49.0584 194.537 49.2061L194.552 49.1913ZM193.68 49.7231C193.68 49.4276 193.71 49.1322 193.784 48.8368C193.858 48.5414 193.961 48.2755 194.123 48.0392C194.286 47.8028 194.478 47.6108 194.729 47.4631C194.98 47.3154 195.29 47.2415 195.645 47.2415C195.852 47.2415 196.029 47.2711 196.177 47.3449C196.339 47.4188 196.472 47.5222 196.575 47.6403C196.679 47.7585 196.753 47.9062 196.812 48.0687C196.856 48.2312 196.886 48.3937 196.886 48.5709C196.886 48.8516 196.827 49.1322 196.694 49.3833C196.561 49.6492 196.398 49.8855 196.177 50.0776C195.955 50.2844 195.719 50.4321 195.438 50.5355C195.157 50.6389 194.877 50.6536 194.581 50.6093C194.581 50.7718 194.64 50.89 194.744 50.9934C194.847 51.0968 194.965 51.1706 195.113 51.2149C195.261 51.274 195.409 51.3036 195.556 51.3183C195.719 51.3183 195.837 51.3331 195.97 51.3331C196.103 51.3331 196.221 51.3331 196.324 51.3036C196.428 51.274 196.546 51.2445 196.649 51.2297C196.753 51.2002 196.871 51.1706 196.989 51.1558C197.092 51.1411 197.225 51.1263 197.344 51.1263C197.403 51.1263 197.447 51.1263 197.491 51.1263C197.536 51.1263 197.595 51.1411 197.624 51.1558C197.669 51.1706 197.713 51.2002 197.742 51.2445C197.772 51.2888 197.787 51.3331 197.787 51.3922C197.787 51.4956 197.742 51.5842 197.669 51.6581C197.595 51.7319 197.491 51.791 197.373 51.8353C197.255 51.8796 197.122 51.9239 196.974 51.9387C196.841 51.9683 196.694 51.983 196.561 51.9978C196.428 51.9978 196.295 52.0273 196.191 52.0273C196.073 52.0273 195.999 52.0273 195.94 52.0273C195.586 52.0273 195.276 51.9683 194.995 51.8649C194.714 51.7467 194.478 51.599 194.286 51.3922C194.094 51.2002 193.946 50.9491 193.843 50.6684C193.739 50.3878 193.695 50.0628 193.695 49.7231H193.68ZM191.154 48.438C190.741 48.5266 190.416 48.6448 190.165 48.8073C189.914 48.9697 189.722 49.1322 189.604 49.3095C189.471 49.4867 189.412 49.664 189.397 49.8412C189.397 50.0185 189.412 50.1662 189.5 50.2991C189.574 50.4173 189.692 50.5207 189.84 50.5798C189.988 50.6389 190.15 50.6389 190.342 50.5798C190.534 50.5207 190.726 50.4025 190.948 50.2105C191.169 50.0185 191.376 49.7378 191.583 49.3538V49.0436C191.583 48.9402 191.583 48.8368 191.553 48.7482C191.539 48.6595 191.494 48.5857 191.435 48.5266C191.376 48.4675 191.287 48.438 191.169 48.438H191.154ZM191.036 56.3996C191.347 56.3996 191.627 56.3405 191.863 56.2223C192.1 56.1189 192.307 55.9564 192.469 55.7644C192.632 55.5724 192.765 55.3508 192.853 55.0997C192.942 54.8486 192.986 54.5975 192.986 54.3168C192.986 54.1839 192.986 54.0067 192.957 53.7703C192.957 53.5488 192.927 53.2976 192.897 53.0318C192.868 52.7659 192.824 52.5 192.779 52.2194C192.735 51.9387 192.661 51.6876 192.587 51.4365C192.513 51.2002 192.425 50.9786 192.307 50.8013C192.188 50.6241 192.07 50.4912 191.908 50.4025C191.76 50.5059 191.627 50.6093 191.479 50.6979C191.347 50.7866 191.199 50.8604 191.051 50.9195C190.903 50.9786 190.741 51.0229 190.593 51.0672C190.431 51.0968 190.268 51.1115 190.076 51.1115C189.84 51.1115 189.633 51.0968 189.471 51.0524C189.308 51.0081 189.16 50.9343 189.057 50.8309C188.954 50.7275 188.865 50.5945 188.806 50.4173C188.747 50.24 188.717 50.0332 188.717 49.7821C188.717 49.6049 188.762 49.4129 188.85 49.2504C188.939 49.0731 189.057 48.9107 189.205 48.7629C189.352 48.6152 189.515 48.4675 189.707 48.3493C189.884 48.2164 190.076 48.113 190.268 48.0244C190.46 47.9358 190.652 47.8619 190.844 47.8028C191.036 47.7585 191.214 47.729 191.347 47.729C191.479 47.729 191.612 47.729 191.701 47.729C191.79 47.729 191.878 47.7585 191.937 47.7881C192.011 47.8324 192.07 47.8767 192.115 47.9505C192.159 48.0244 192.203 48.1278 192.248 48.246C192.38 48.6743 192.513 49.147 192.691 49.6344C192.853 50.1366 193.016 50.6389 193.163 51.1558C193.311 51.6728 193.444 52.2046 193.547 52.7363C193.651 53.2681 193.695 53.7703 193.695 54.2725C193.695 54.7157 193.636 55.0849 193.518 55.3951C193.385 55.7053 193.222 55.9564 193.03 56.1485C192.838 56.3405 192.602 56.503 192.351 56.6064C192.085 56.7098 191.834 56.7836 191.583 56.8132C191.317 56.8427 191.081 56.8427 190.83 56.8279C190.593 56.8279 190.386 56.7836 190.194 56.7393C190.017 56.695 189.884 56.6359 189.796 56.5768C189.707 56.5177 189.692 56.4586 189.736 56.4291C189.781 56.3848 189.899 56.3553 190.106 56.3405C190.313 56.3257 190.608 56.3405 191.022 56.37L191.036 56.3996ZM185.364 50.4321C185.364 50.565 185.379 50.6979 185.409 50.8013C185.438 50.9047 185.482 51.0081 185.541 51.082C185.601 51.1558 185.689 51.2149 185.793 51.2592C185.896 51.3036 186.029 51.3183 186.177 51.3183C186.383 51.3183 186.575 51.2592 186.782 51.1411C186.989 51.0377 187.166 50.89 187.329 50.7127C187.491 50.5355 187.624 50.3434 187.713 50.1366C187.816 49.9299 187.861 49.7231 187.861 49.531C187.861 49.4424 187.861 49.3538 187.831 49.2356C187.816 49.1322 187.787 49.0436 187.742 48.955C187.713 48.8663 187.654 48.7925 187.58 48.7334C187.506 48.6743 187.417 48.6448 187.314 48.6448C187.211 48.6448 187.092 48.6743 186.96 48.7482C186.827 48.822 186.679 48.9107 186.531 49.014C186.383 49.1174 186.236 49.2356 186.103 49.3686C185.97 49.5015 185.837 49.6344 185.719 49.7526C185.601 49.8855 185.512 50.0185 185.438 50.1366C185.379 50.2548 185.335 50.3582 185.335 50.4321H185.364ZM184.67 50.3434C184.67 50.0037 184.759 49.6935 184.906 49.3981C185.069 49.1027 185.276 48.8516 185.541 48.6448C185.807 48.438 186.103 48.2755 186.428 48.1426C186.753 48.0244 187.092 47.9653 187.417 47.9653C187.595 47.9653 187.772 48.0244 187.92 48.1426C188.067 48.2607 188.186 48.4084 188.289 48.5857C188.392 48.7629 188.466 48.9402 188.525 49.1322C188.584 49.3242 188.599 49.4867 188.599 49.6344C188.599 49.9446 188.525 50.24 188.378 50.5355C188.23 50.8161 188.038 51.082 187.801 51.3036C187.565 51.5251 187.299 51.7024 187.004 51.8501C186.708 51.983 186.413 52.0569 186.103 52.0569C185.837 52.0569 185.615 52.0126 185.438 51.9239C185.261 51.8353 185.113 51.7171 185.01 51.5694C184.892 51.4217 184.818 51.2445 184.773 51.0377C184.714 50.8309 184.685 50.6093 184.685 50.373L184.67 50.3434ZM179.175 47.8619C179.175 47.8619 179.175 47.8324 179.175 47.8176C179.175 47.8176 179.175 47.7881 179.175 47.7733C179.19 47.7585 179.234 47.7142 179.279 47.6699C179.323 47.6256 179.352 47.596 179.367 47.596H181.022C181.022 47.596 181.022 47.4483 180.992 47.3006C180.977 47.1677 180.962 47.02 180.948 46.8722C180.933 46.7098 180.933 46.5473 180.948 46.37C180.962 46.1928 180.977 46.0451 181.022 45.8974C181.066 45.7496 181.125 45.6315 181.214 45.5576C181.302 45.469 181.435 45.4247 181.598 45.4247C181.598 45.986 181.627 46.4291 181.716 46.7689C181.79 47.1086 181.893 47.3597 182.026 47.5369C182.159 47.7142 182.307 47.8324 182.469 47.8914C182.632 47.9505 182.809 47.9653 182.971 47.9653C183.149 47.9653 183.311 47.9358 183.474 47.8767C183.636 47.8324 183.784 47.8028 183.917 47.7881C184.05 47.7733 184.153 47.7881 184.227 47.8324C184.301 47.8767 184.345 47.9653 184.345 48.1278C184.345 48.246 184.316 48.3346 184.271 48.3789C184.212 48.4232 184.123 48.4675 183.976 48.4971C183.931 48.4971 183.858 48.5118 183.754 48.5266C183.651 48.5414 183.547 48.5561 183.414 48.5709C183.282 48.5709 183.149 48.5857 183.016 48.6005C182.868 48.6152 182.735 48.63 182.617 48.6448C182.484 48.6448 182.38 48.6595 182.277 48.6595C182.174 48.6595 182.1 48.6595 182.041 48.6595C182.041 48.6891 182.041 48.7334 182.041 48.7925C182.041 48.8663 182.041 48.8959 182.041 48.9254C182.041 49.1618 182.07 49.3981 182.159 49.6344C182.233 49.8708 182.321 50.0923 182.41 50.3139C182.499 50.5355 182.587 50.757 182.661 50.9934C182.735 51.2149 182.779 51.4513 182.779 51.6876C182.779 51.7319 182.779 51.7762 182.779 51.8205C182.779 51.8649 182.75 51.9092 182.72 51.9387C182.705 51.9683 182.661 51.9978 182.617 52.0273C182.573 52.0569 182.513 52.0421 182.425 52.0273C182.218 51.9683 182.056 51.8501 181.952 51.6728C181.849 51.4956 181.775 51.274 181.731 51.0229C181.671 50.7718 181.657 50.5059 181.627 50.2253C181.612 49.9446 181.583 49.6787 181.553 49.4424C181.524 49.1913 181.465 48.9845 181.391 48.8073C181.317 48.63 181.184 48.5266 181.022 48.4971L179.426 48.1278C179.426 48.1278 179.367 48.0982 179.323 48.0539C179.279 48.0096 179.249 47.9801 179.249 47.9505C179.249 47.9505 179.249 47.9358 179.249 47.9062C179.249 47.9062 179.249 47.8767 179.249 47.8619H179.175ZM173.03 48.438C172.617 48.5266 172.292 48.6448 172.041 48.8073C171.79 48.9697 171.598 49.1322 171.479 49.3095C171.361 49.4867 171.287 49.664 171.287 49.8412C171.273 50.0185 171.302 50.1662 171.391 50.2991C171.465 50.4173 171.568 50.5207 171.716 50.5798C171.864 50.6389 172.041 50.6389 172.218 50.5798C172.395 50.5207 172.602 50.4025 172.824 50.2105C173.03 50.0185 173.237 49.7378 173.459 49.3538V49.0436C173.459 48.9402 173.459 48.8368 173.429 48.7482C173.414 48.6595 173.37 48.5857 173.311 48.5266C173.252 48.4675 173.163 48.438 173.045 48.438H173.03ZM172.912 56.3996C173.222 56.3996 173.488 56.3405 173.739 56.2223C173.976 56.1189 174.183 55.9564 174.36 55.7644C174.522 55.5724 174.655 55.3508 174.744 55.0997C174.833 54.8486 174.877 54.5975 174.877 54.3168C174.877 54.1839 174.877 54.0067 174.847 53.7703C174.847 53.5488 174.818 53.2976 174.788 53.0318C174.759 52.7659 174.714 52.5 174.67 52.2194C174.611 51.9387 174.552 51.6876 174.478 51.4365C174.404 51.2002 174.301 50.9786 174.197 50.8013C174.079 50.6241 173.961 50.4912 173.799 50.4025C173.651 50.5059 173.518 50.6093 173.385 50.6979C173.252 50.7866 173.104 50.8604 172.957 50.9195C172.809 50.9786 172.646 51.0229 172.499 51.0672C172.336 51.0968 172.174 51.1115 171.982 51.1115C171.745 51.1115 171.539 51.0968 171.376 51.0524C171.214 51.0081 171.066 50.9343 170.948 50.8309C170.83 50.7275 170.756 50.5945 170.697 50.4173C170.638 50.24 170.623 50.0332 170.623 49.7821C170.623 49.6049 170.667 49.4129 170.756 49.2504C170.844 49.0879 170.962 48.9107 171.11 48.7629C171.258 48.6152 171.42 48.4675 171.598 48.3493C171.775 48.2164 171.967 48.113 172.174 48.0244C172.366 47.9358 172.558 47.8619 172.75 47.8028C172.942 47.7585 173.104 47.729 173.252 47.729C173.4 47.729 173.518 47.729 173.607 47.729C173.695 47.729 173.784 47.7585 173.843 47.7881C173.917 47.8324 173.961 47.8767 174.005 47.9505C174.05 48.0244 174.094 48.1278 174.138 48.246C174.271 48.6743 174.404 49.147 174.581 49.6344C174.744 50.1366 174.906 50.6389 175.054 51.1558C175.202 51.6728 175.335 52.2046 175.423 52.7363C175.527 53.2681 175.571 53.7703 175.571 54.2725C175.571 54.7157 175.512 55.0849 175.394 55.3951C175.276 55.7053 175.113 55.9564 174.906 56.1485C174.7 56.3405 174.478 56.503 174.227 56.6064C173.961 56.7098 173.71 56.7836 173.459 56.8132C173.193 56.8427 172.957 56.8427 172.705 56.8279C172.469 56.8279 172.262 56.7836 172.07 56.7393C171.893 56.695 171.76 56.6359 171.671 56.5768C171.583 56.5177 171.553 56.4586 171.598 56.4291C171.642 56.3848 171.775 56.3553 171.967 56.3405C172.174 56.3257 172.484 56.3405 172.897 56.37L172.912 56.3996ZM165.999 49.2356C165.999 49.1027 166.029 48.9993 166.103 48.9254C166.177 48.8663 166.295 48.822 166.457 48.822H166.531C166.546 48.9107 166.561 49.014 166.59 49.1322C166.62 49.2504 166.649 49.3686 166.694 49.4867C166.738 49.6049 166.797 49.7231 166.856 49.8265C166.915 49.9299 166.989 50.0037 167.078 50.0628C167.078 49.8708 167.122 49.6787 167.225 49.5015C167.314 49.3242 167.432 49.1618 167.565 49.0288C167.698 48.8959 167.846 48.7777 168.008 48.6743C168.171 48.5709 168.333 48.5118 168.496 48.4823H168.673C168.939 48.4823 169.16 48.5414 169.352 48.6595C169.53 48.7777 169.692 48.9254 169.825 49.1174C169.943 49.3095 170.047 49.5163 170.106 49.7674C170.165 50.0185 170.224 50.2548 170.253 50.5059C170.283 50.757 170.313 51.0081 170.327 51.2297C170.327 51.466 170.327 51.6581 170.327 51.8353H169.722C169.692 51.5104 169.648 51.1854 169.589 50.89C169.574 50.7718 169.544 50.6389 169.53 50.5059C169.5 50.373 169.471 50.24 169.441 50.1219C169.412 50.0037 169.367 49.9003 169.338 49.7969C169.308 49.6935 169.264 49.6049 169.205 49.5458C169.19 49.5163 169.16 49.4867 169.116 49.4572C169.087 49.4129 169.042 49.3833 168.998 49.339C168.954 49.2947 168.924 49.2652 168.895 49.2356C168.865 49.2061 168.835 49.1913 168.835 49.1913C168.673 49.147 168.525 49.1913 168.407 49.2799C168.289 49.3833 168.186 49.531 168.082 49.7083C167.994 49.8855 167.92 50.1071 167.861 50.3287C167.801 50.565 167.757 50.7718 167.713 50.9934C167.669 51.2002 167.654 51.3774 167.639 51.5399C167.624 51.7024 167.609 51.791 167.609 51.8353C167.477 51.9387 167.344 51.9683 167.225 51.9239C167.107 51.8796 166.989 51.791 166.886 51.6581C166.782 51.5251 166.679 51.3626 166.59 51.1558C166.516 50.9638 166.428 50.7423 166.354 50.5207C166.28 50.2991 166.221 50.0776 166.162 49.8412C166.103 49.6197 166.044 49.4129 166.014 49.2061L165.999 49.2356ZM164.522 45.8235C164.626 45.8678 164.714 45.9417 164.788 46.0303C164.862 46.1337 164.892 46.2223 164.892 46.2962C164.892 46.3848 164.818 46.4291 164.7 46.4587C164.581 46.4882 164.389 46.4587 164.124 46.37C164.124 46.2223 164.153 46.0894 164.212 45.986C164.271 45.8826 164.375 45.8235 164.537 45.8235H164.522ZM164.404 48.9254C164.404 48.9254 164.404 48.8368 164.404 48.7629C164.404 48.6891 164.404 48.6152 164.404 48.5266C164.404 48.4527 164.404 48.3641 164.404 48.2903C164.404 48.2164 164.404 48.1573 164.404 48.1278C164.463 48.0392 164.537 47.9653 164.64 47.9062C164.729 47.8471 164.833 47.8028 164.936 47.7733C164.951 48.0687 164.995 48.3937 165.084 48.7186C165.157 49.0584 165.246 49.3833 165.335 49.7231C165.423 50.0628 165.497 50.3878 165.571 50.7275C165.645 51.0524 165.674 51.3626 165.674 51.6433C165.674 51.8944 165.542 52.0126 165.29 52.0126C165.143 52.0126 165.01 51.9535 164.906 51.8205C164.803 51.6876 164.729 51.5251 164.655 51.3479C164.596 51.1558 164.537 50.9343 164.493 50.6979C164.463 50.4616 164.434 50.2253 164.419 49.9889C164.404 49.7526 164.389 49.5458 164.389 49.3538C164.389 49.1618 164.389 49.014 164.389 48.9107L164.404 48.9254ZM157.683 48.4823C157.683 48.3937 157.713 48.305 157.742 48.2312C157.787 48.1573 157.861 48.113 157.964 48.113C157.964 48.113 157.964 48.113 157.979 48.113H158.053C158.053 48.113 158.097 48.1573 158.141 48.2016C158.186 48.246 158.215 48.2755 158.23 48.305C158.245 48.3346 158.289 48.4084 158.333 48.5118C158.378 48.6152 158.451 48.7482 158.525 48.8959C158.599 49.0436 158.673 49.1913 158.762 49.3538C158.85 49.5163 158.924 49.664 158.998 49.8117C159.072 49.9594 159.131 50.0923 159.19 50.1957C159.249 50.2991 159.279 50.373 159.293 50.4025C159.293 50.4173 159.323 50.4616 159.382 50.5059C159.426 50.5502 159.471 50.5798 159.485 50.5945C159.53 50.5059 159.574 50.4025 159.618 50.2548C159.663 50.0923 159.707 49.9299 159.751 49.7526C159.796 49.5753 159.855 49.3833 159.899 49.1765C159.958 48.9845 160.002 48.8073 160.061 48.6448C160.121 48.4823 160.194 48.3641 160.268 48.2607C160.342 48.1573 160.431 48.113 160.534 48.113C160.667 48.113 160.815 48.1721 160.933 48.2755C161.066 48.3789 161.184 48.5266 161.302 48.7039C161.42 48.8811 161.539 49.0731 161.642 49.2947C161.745 49.5163 161.849 49.7231 161.952 49.9446C162.056 50.1514 162.129 50.3434 162.218 50.5207C162.307 50.6979 162.395 50.8457 162.469 50.9491C162.543 50.9195 162.587 50.8752 162.632 50.7866C162.676 50.6979 162.705 50.6093 162.735 50.5207C162.765 50.4173 162.779 50.3287 162.794 50.24C162.794 50.1514 162.809 50.1071 162.824 50.0776C162.824 50.0185 162.824 49.9151 162.838 49.7969C162.838 49.664 162.868 49.5163 162.883 49.3538C162.883 49.1913 162.898 49.014 162.912 48.8368C162.912 48.6595 162.942 48.4971 162.942 48.3346C162.957 48.1721 162.971 48.0244 162.971 47.8914C162.971 47.7585 162.971 47.6699 162.971 47.6108C162.971 47.6108 163.016 47.6108 163.06 47.6108C163.104 47.6108 163.134 47.6108 163.149 47.6108C163.222 47.6108 163.296 47.6108 163.355 47.6403C163.414 47.6551 163.459 47.7142 163.488 47.8176C163.488 47.8619 163.488 47.921 163.488 48.0244C163.488 48.1278 163.488 48.2312 163.488 48.3493C163.488 48.4675 163.488 48.5709 163.488 48.6743C163.488 48.7777 163.488 48.8516 163.488 48.8959C163.488 48.9845 163.488 49.1174 163.488 49.2947C163.488 49.472 163.488 49.6935 163.488 49.9151C163.488 50.1366 163.474 50.373 163.429 50.6093C163.4 50.8457 163.355 51.0525 163.296 51.2592C163.237 51.4513 163.163 51.6137 163.06 51.7319C162.957 51.8501 162.838 51.9092 162.691 51.9092C162.513 51.9092 162.351 51.8649 162.218 51.7762C162.07 51.7024 161.923 51.5842 161.79 51.4513C161.672 51.3183 161.539 51.1558 161.42 50.9934C161.302 50.8309 161.199 50.6536 161.11 50.4764C161.007 50.2991 160.933 50.1366 160.844 49.9742C160.756 49.8265 160.697 49.6787 160.638 49.5753C160.593 49.6787 160.549 49.7969 160.519 49.9446C160.49 50.0923 160.446 50.2548 160.401 50.4321C160.357 50.6093 160.313 50.7718 160.253 50.9491C160.194 51.1263 160.135 51.274 160.076 51.4217C160.002 51.5547 159.929 51.6728 159.84 51.7615C159.751 51.8501 159.648 51.8944 159.53 51.8944C159.471 51.8944 159.426 51.8944 159.382 51.8944C159.338 51.8944 159.293 51.8944 159.264 51.8944C159.22 51.8944 159.19 51.8649 159.16 51.8353C159.131 51.8058 159.101 51.7615 159.072 51.7024L157.654 48.6891C157.654 48.6891 157.654 48.6595 157.654 48.6152C157.654 48.5709 157.654 48.5414 157.654 48.5118L157.683 48.4823ZM153.429 50.24C153.429 50.5502 153.488 50.7866 153.607 50.9195C153.725 51.0672 153.931 51.1263 154.242 51.1263C154.463 51.1263 154.685 51.0968 154.892 51.0081C155.098 50.9343 155.276 50.8161 155.423 50.6832C155.586 50.5355 155.704 50.373 155.793 50.181C155.881 49.9889 155.926 49.7674 155.926 49.531C155.926 49.4276 155.926 49.2947 155.926 49.1174C155.926 48.9402 155.926 48.7629 155.896 48.5857C155.866 48.4084 155.807 48.2607 155.734 48.1278C155.66 47.9948 155.542 47.9358 155.394 47.9358C155.113 47.9358 154.833 48.0096 154.596 48.1573C154.36 48.305 154.138 48.4823 153.976 48.7186C153.799 48.9402 153.651 49.1913 153.562 49.4572C153.459 49.7231 153.415 49.9889 153.415 50.2548L153.429 50.24ZM156.28 50.9491C156.073 51.0968 155.881 51.2149 155.734 51.3331C155.586 51.4513 155.438 51.5399 155.29 51.6137C155.143 51.6876 154.995 51.7467 154.833 51.791C154.67 51.8353 154.463 51.8501 154.242 51.8501C153.725 51.8501 153.341 51.7171 153.104 51.4365C152.853 51.1706 152.735 50.757 152.735 50.2253C152.735 50.0185 152.765 49.7969 152.809 49.5753C152.868 49.3538 152.942 49.1322 153.045 48.9107C153.149 48.6891 153.282 48.4823 153.429 48.2755C153.577 48.0687 153.739 47.8914 153.931 47.7437C154.109 47.5813 154.316 47.4631 154.537 47.3745C154.744 47.2858 154.965 47.2415 155.202 47.2415C155.601 47.2711 155.911 47.3745 156.132 47.5369C156.354 47.6994 156.531 47.8914 156.635 48.1426C156.753 48.3789 156.827 48.6595 156.871 48.955C156.915 49.2504 156.945 49.5606 156.974 49.8708C157.004 50.1957 157.033 50.5059 157.063 50.8309C157.107 51.1411 157.181 51.4365 157.299 51.7171C157.225 51.8944 157.166 52.0273 157.092 52.1012C157.019 52.175 156.96 52.1898 156.886 52.1455C156.812 52.1012 156.723 51.9683 156.62 51.7762C156.516 51.5842 156.383 51.3036 156.251 50.9638L156.28 50.9491ZM148.525 48.5561C148.525 48.5561 148.525 48.4527 148.525 48.3937C148.525 48.3346 148.54 48.2903 148.555 48.2607C148.57 48.2164 148.599 48.1869 148.643 48.1573C148.673 48.1278 148.732 48.113 148.806 48.113C148.865 48.113 148.924 48.1573 148.983 48.246C149.057 48.3346 149.116 48.438 149.19 48.5709C149.264 48.7039 149.338 48.8368 149.412 48.9993C149.485 49.147 149.544 49.2947 149.589 49.4276C149.648 49.5606 149.692 49.664 149.722 49.7674C149.751 49.856 149.781 49.9151 149.781 49.9151C149.855 49.7231 149.929 49.5163 150.017 49.2799C150.106 49.0584 150.209 48.8516 150.342 48.6448C150.475 48.4527 150.623 48.2903 150.8 48.1573C150.977 48.0244 151.199 47.9505 151.465 47.9505C151.598 47.9505 151.731 47.9801 151.834 48.0096C151.952 48.0539 152.056 48.113 152.144 48.1869C152.233 48.2607 152.307 48.3641 152.366 48.4675C152.425 48.5709 152.454 48.7039 152.454 48.8516C152.454 48.9697 152.41 49.0584 152.321 49.1027C152.218 49.1618 152.115 49.1765 151.996 49.1765H151.908L151.553 48.822H151.539H151.509H151.479C151.287 48.822 151.14 48.8663 151.022 48.9845C150.918 49.0879 150.83 49.2208 150.785 49.3833C150.726 49.5458 150.697 49.7083 150.682 49.8855C150.682 50.0628 150.652 50.2105 150.652 50.3582C150.652 50.4616 150.652 50.5798 150.682 50.6979C150.711 50.8013 150.726 50.9195 150.756 51.0229C150.785 51.1263 150.8 51.2445 150.83 51.3479C150.859 51.466 150.859 51.5842 150.859 51.7024C150.859 51.9387 150.726 52.0421 150.49 52.0421C150.357 52.0421 150.209 51.9683 150.061 51.8205C149.914 51.6728 149.766 51.4956 149.618 51.2592C149.471 51.0377 149.338 50.7718 149.205 50.5059C149.072 50.24 148.954 49.9742 148.865 49.7083C148.762 49.4572 148.688 49.2208 148.629 49.014C148.57 48.8073 148.54 48.6448 148.54 48.5561H148.525ZM144.98 46.887C144.98 47.0643 144.98 47.2563 145.01 47.4926C145.039 47.7142 145.069 47.9505 145.128 48.1869C145.187 48.4232 145.246 48.6743 145.335 48.9107C145.423 49.1618 145.497 49.3833 145.615 49.6049C145.719 49.8117 145.837 50.0037 145.97 50.181C146.103 50.3582 146.251 50.4911 146.413 50.5945C146.605 50.3287 146.768 50.0923 146.9 49.8855C147.033 49.6787 147.152 49.4719 147.24 49.2652C147.329 49.0436 147.403 48.8368 147.432 48.6005C147.477 48.3641 147.491 48.0835 147.491 47.7733C147.491 47.5517 147.477 47.3302 147.447 47.1086C147.417 46.887 147.358 46.695 147.27 46.5325C147.181 46.37 147.048 46.2371 146.886 46.1337C146.723 46.0303 146.502 45.986 146.236 45.986C146.014 45.986 145.807 46.0155 145.601 46.0894C145.394 46.1632 145.187 46.2371 144.995 46.3553C144.995 46.37 144.995 46.3996 144.995 46.4587C144.995 46.503 144.995 46.5621 144.995 46.6211V46.7836C144.995 46.7836 144.995 46.8722 144.995 46.887H144.98ZM144.301 46.4143C144.301 46.178 144.375 45.986 144.508 45.8383C144.641 45.6906 144.818 45.5724 145.01 45.4838C145.202 45.3951 145.423 45.3508 145.66 45.3065C145.896 45.277 146.103 45.2622 146.28 45.2622C146.635 45.2622 146.945 45.3361 147.181 45.469C147.417 45.6019 147.624 45.794 147.772 46.0303C147.92 46.2666 148.038 46.5325 148.097 46.8279C148.171 47.1381 148.2 47.4335 148.2 47.7437C148.2 47.9505 148.186 48.2016 148.141 48.4823C148.097 48.7629 148.038 49.0584 147.949 49.3538C147.861 49.6492 147.757 49.9594 147.624 50.24C147.491 50.5355 147.344 50.8013 147.166 51.0377C147.004 51.274 146.812 51.4513 146.59 51.599C146.383 51.7467 146.147 51.8205 145.896 51.8205C145.852 51.8205 145.793 51.7467 145.719 51.6137C145.645 51.4808 145.571 51.2888 145.482 51.0672C145.394 50.8457 145.305 50.5798 145.217 50.2844C145.128 49.9889 145.039 49.6935 144.951 49.3686C144.862 49.0436 144.788 48.7334 144.7 48.4084C144.626 48.0835 144.552 47.7881 144.493 47.5222C144.434 47.2563 144.389 47.02 144.345 46.8132C144.316 46.6064 144.301 46.4587 144.301 46.37V46.4143Z" fill="#08A0E9"/>
<path fill-rule="evenodd" clip-rule="evenodd" d="M212.218 48.5568C212.218 48.5568 212.218 48.4534 212.218 48.3943C212.218 48.3352 212.233 48.2909 212.247 48.2613C212.247 48.217 212.292 48.1875 212.321 48.1579C212.365 48.1284 212.41 48.1136 212.484 48.1136C212.543 48.1136 212.602 48.1579 212.661 48.2466C212.735 48.3352 212.794 48.4386 212.868 48.5715C212.942 48.7045 213.015 48.8374 213.089 48.9999C213.163 49.1476 213.222 49.2953 213.267 49.4282C213.326 49.5612 213.37 49.6646 213.399 49.768C213.429 49.8566 213.459 49.9157 213.459 49.9157C213.532 49.7237 213.606 49.5169 213.695 49.2805C213.784 49.059 213.887 48.8522 214.02 48.6454C214.153 48.4534 214.315 48.2909 214.478 48.1579C214.655 48.025 214.877 47.9511 215.142 47.9511C215.275 47.9511 215.394 47.9807 215.512 48.0102C215.63 48.0545 215.733 48.1136 215.822 48.1875C215.911 48.2613 215.984 48.3647 216.043 48.4681C216.103 48.5715 216.132 48.7045 216.132 48.8522C216.132 48.9703 216.088 49.059 215.999 49.1033C215.896 49.1624 215.792 49.1771 215.674 49.1771H215.6L215.246 48.8226C215.246 48.8226 215.231 48.8226 215.216 48.8226C215.216 48.8226 215.202 48.8226 215.187 48.8226H215.157C214.965 48.8226 214.817 48.8669 214.699 48.9851C214.596 49.0885 214.507 49.2214 214.463 49.3839C214.404 49.5464 214.374 49.7089 214.36 49.8861C214.36 50.0634 214.33 50.2111 214.33 50.3588C214.33 50.4622 214.33 50.5804 214.36 50.6986C214.389 50.8019 214.404 50.9201 214.433 51.0235C214.463 51.1269 214.493 51.2451 214.507 51.3485C214.537 51.4666 214.537 51.5848 214.537 51.703C214.537 51.9393 214.404 52.0427 214.168 52.0427C214.035 52.0427 213.887 51.9689 213.739 51.8211C213.591 51.6734 213.444 51.4962 213.296 51.2599C213.148 51.0383 213.001 50.7724 212.868 50.5065C212.735 50.2406 212.617 49.9748 212.528 49.7089C212.425 49.4578 212.351 49.2214 212.292 49.0147C212.233 48.8079 212.203 48.6454 212.203 48.5568H212.218ZM208.481 49.1919C208.481 49.3839 208.51 49.5316 208.569 49.6055C208.628 49.6941 208.747 49.7384 208.953 49.7384C209.101 49.7384 209.234 49.7089 209.367 49.6646C209.5 49.6055 209.633 49.5316 209.736 49.443C209.854 49.3544 209.943 49.2362 210.002 49.1181C210.061 48.9999 210.106 48.8522 210.106 48.7045C210.106 48.6158 210.106 48.542 210.091 48.4534C210.091 48.3647 210.046 48.2761 210.002 48.217C209.958 48.1432 209.899 48.0841 209.84 48.0398C209.766 47.9955 209.677 47.9659 209.574 47.9659C209.411 47.9659 209.264 47.9955 209.131 48.0693C208.998 48.1432 208.88 48.2466 208.791 48.3647C208.702 48.4829 208.628 48.6158 208.584 48.7635C208.525 48.9113 208.51 49.059 208.51 49.2067L208.481 49.1919ZM207.609 49.7237C207.609 49.4282 207.639 49.1328 207.713 48.8374C207.786 48.542 207.89 48.2761 208.067 48.0398C208.215 47.8034 208.422 47.6114 208.673 47.4637C208.924 47.316 209.234 47.2421 209.589 47.2421C209.795 47.2421 209.973 47.2717 210.12 47.3455C210.283 47.4194 210.401 47.5228 210.504 47.6409C210.608 47.7591 210.682 47.9068 210.741 48.0693C210.8 48.2318 210.815 48.3943 210.815 48.5715C210.815 48.8522 210.755 49.1328 210.623 49.3839C210.49 49.6498 210.327 49.8861 210.106 50.0782C209.884 50.285 209.633 50.4327 209.367 50.5361C209.086 50.6395 208.791 50.6542 208.51 50.6099C208.51 50.7724 208.569 50.8906 208.673 50.994C208.776 51.0974 208.894 51.1712 209.042 51.2155C209.19 51.2746 209.337 51.3042 209.485 51.3189C209.633 51.3189 209.781 51.3337 209.899 51.3337C210.017 51.3337 210.135 51.3337 210.253 51.3042C210.357 51.2746 210.475 51.2451 210.578 51.2303C210.682 51.2008 210.8 51.1712 210.918 51.1565C211.036 51.1417 211.154 51.1269 211.272 51.1269C211.317 51.1269 211.376 51.1269 211.42 51.1269C211.464 51.1269 211.509 51.1417 211.553 51.1565C211.597 51.1712 211.642 51.2008 211.656 51.2451C211.686 51.2894 211.701 51.3337 211.701 51.3928C211.701 51.4962 211.656 51.5848 211.583 51.6587C211.509 51.7325 211.405 51.7916 211.287 51.8359C211.169 51.8802 211.036 51.9245 210.903 51.9393C210.755 51.9689 210.623 51.9836 210.49 51.9984C210.357 51.9984 210.224 52.0279 210.12 52.0279C210.002 52.0279 209.914 52.0279 209.869 52.0279C209.515 52.0279 209.204 51.9689 208.924 51.8655C208.643 51.7473 208.407 51.5996 208.215 51.3928C208.023 51.2008 207.875 50.9497 207.772 50.669C207.668 50.3884 207.624 50.0634 207.624 49.7237H207.609ZM203.828 46.6513C203.828 46.6513 203.828 46.5183 203.843 46.4297C203.857 46.3411 203.887 46.2525 203.916 46.1638C203.946 46.09 204.005 46.0161 204.049 45.9571C204.108 45.898 204.182 45.8684 204.271 45.8684C204.271 45.8684 204.286 45.8684 204.315 45.8684C204.33 45.8684 204.345 45.8684 204.36 45.8684C204.448 46.2082 204.507 46.5479 204.522 46.8876C204.537 47.2274 204.522 47.5523 204.522 47.8625C204.493 48.1727 204.448 48.4829 204.389 48.7783C204.33 49.0737 204.286 49.3396 204.256 49.5907C204.227 49.8418 204.197 50.0634 204.182 50.2554C204.182 50.4622 204.197 50.6247 204.271 50.7576C204.271 50.669 204.256 50.5656 204.256 50.4327C204.256 50.2997 204.256 50.1816 204.286 50.0486C204.315 49.9157 204.36 49.7827 204.419 49.6498C204.478 49.5169 204.552 49.3987 204.67 49.2953C204.773 49.1919 204.921 49.1033 205.098 49.0442C205.275 48.9851 205.482 48.9556 205.748 48.9556C206.014 48.9556 206.25 48.9999 206.442 49.1033C206.634 49.1919 206.797 49.3248 206.93 49.4873C207.063 49.6498 207.151 49.8418 207.21 50.0486C207.269 50.2702 207.299 50.4918 207.299 50.7429V51.1417C207.299 51.2894 207.284 51.4223 207.24 51.5405C207.21 51.6734 207.137 51.7768 207.048 51.8507C206.959 51.9393 206.826 51.9836 206.649 51.9836C206.649 51.895 206.649 51.7768 206.664 51.6291C206.664 51.4814 206.679 51.3189 206.679 51.1565C206.679 50.994 206.679 50.8167 206.664 50.6395C206.664 50.4622 206.605 50.2997 206.546 50.1668C206.487 50.0339 206.398 49.9157 206.295 49.8271C206.191 49.7384 206.043 49.6941 205.851 49.6941C205.778 49.6941 205.704 49.6941 205.615 49.6941C205.512 49.6941 205.423 49.7237 205.32 49.768C205.216 49.8123 205.128 49.8861 205.039 49.9748C204.936 50.0634 204.877 50.1963 204.818 50.344C204.773 50.5065 204.729 50.6986 204.729 50.9349C204.729 51.1712 204.744 51.4666 204.818 51.8064C204.773 51.9098 204.729 51.9689 204.67 51.9836C204.611 51.9984 204.537 52.0132 204.448 52.0132C204.271 52.0132 204.123 51.9541 204.02 51.8359C203.902 51.7178 203.813 51.5405 203.754 51.3337C203.695 51.1269 203.651 50.8758 203.636 50.6099C203.621 50.344 203.606 50.0486 203.606 49.7532C203.606 49.4578 203.636 49.1476 203.651 48.8374C203.68 48.5272 203.695 48.2318 203.724 47.9511C203.754 47.6705 203.784 47.4194 203.798 47.1978C203.828 46.9615 203.828 46.7842 203.828 46.6365V46.6513ZM198.097 47.8625C198.097 47.8625 198.097 47.833 198.097 47.8182C198.097 47.8182 198.097 47.7887 198.097 47.7739C198.126 47.7591 198.156 47.7148 198.2 47.6705C198.244 47.6262 198.274 47.5966 198.289 47.5966H199.943C199.943 47.5966 199.943 47.4489 199.928 47.3012C199.914 47.1683 199.899 47.0206 199.884 46.8729C199.869 46.7104 199.869 46.5479 199.884 46.3706C199.884 46.1934 199.914 46.0457 199.958 45.898C200.002 45.7503 200.061 45.6321 200.15 45.5582C200.238 45.4696 200.371 45.4253 200.534 45.4253C200.534 45.9866 200.563 46.4297 200.652 46.7695C200.726 47.1092 200.829 47.3603 200.962 47.5376C201.095 47.7148 201.243 47.833 201.405 47.8921C201.568 47.9511 201.745 47.9659 201.908 47.9659C202.085 47.9659 202.247 47.9364 202.41 47.8773C202.572 47.833 202.72 47.8034 202.853 47.7887C202.986 47.7739 203.089 47.7887 203.163 47.833C203.237 47.8773 203.281 47.9659 203.281 48.1284C203.281 48.2466 203.252 48.3352 203.207 48.3795C203.163 48.4238 203.06 48.4681 202.912 48.4977C202.868 48.4977 202.794 48.5124 202.69 48.5272C202.587 48.542 202.484 48.5568 202.351 48.5715C202.218 48.5715 202.085 48.5863 201.952 48.6011C201.804 48.6158 201.671 48.6306 201.553 48.6454C201.42 48.6454 201.317 48.6601 201.213 48.6601C201.11 48.6601 201.021 48.6601 200.977 48.6601C200.977 48.6897 200.977 48.734 200.977 48.7931C200.977 48.8669 200.977 48.8965 200.977 48.926C200.977 49.1624 201.007 49.3987 201.095 49.635C201.169 49.8714 201.243 50.0929 201.346 50.3145C201.435 50.5361 201.524 50.7576 201.597 50.994C201.671 51.2155 201.716 51.4519 201.716 51.6882C201.716 51.7325 201.716 51.7768 201.716 51.8211C201.716 51.8655 201.686 51.9098 201.671 51.9393C201.642 51.9689 201.612 51.9984 201.553 52.0279C201.509 52.0575 201.45 52.0427 201.361 52.0279C201.154 51.9689 200.992 51.8507 200.888 51.6734C200.785 51.4962 200.711 51.2746 200.667 51.0235C200.623 50.7724 200.593 50.5065 200.563 50.2259C200.549 49.9452 200.519 49.6794 200.49 49.443C200.46 49.1919 200.401 48.9851 200.327 48.8079C200.253 48.6306 200.12 48.5272 199.958 48.4977L198.377 48.1284C198.377 48.1284 198.318 48.0989 198.274 48.0545C198.23 48.0102 198.2 47.9807 198.2 47.9511C198.2 47.9511 198.2 47.9364 198.2 47.9068C198.2 47.9068 198.2 47.8773 198.2 47.8625H198.097Z" fill="#08A0E9"/>
<path fill-rule="evenodd" clip-rule="evenodd" d="M295.881 16.4289C295.379 15.9267 294.67 15.6017 293.887 15.6017C293.104 15.6017 292.41 15.9119 291.893 16.4289C291.391 16.9311 291.066 17.6401 291.066 18.423C291.066 19.2058 291.376 19.9001 291.893 20.4171C292.395 20.9193 293.104 21.2442 293.887 21.2442C294.67 21.2442 295.364 20.934 295.881 20.4171C296.383 19.9148 296.708 19.2058 296.708 18.423C296.708 17.6401 296.398 16.9459 295.881 16.4289ZM293.902 15.2915C294.773 15.2915 295.556 15.646 296.118 16.2073C296.679 16.7834 297.033 17.5515 297.033 18.423C297.033 19.2945 296.679 20.0773 296.118 20.6386C295.556 21.1999 294.773 21.5544 293.902 21.5544C293.03 21.5544 292.248 21.1999 291.686 20.6386C291.125 20.0773 290.771 19.2945 290.771 18.423C290.771 17.5515 291.125 16.7686 291.686 16.2073C292.248 15.646 293.03 15.2915 293.902 15.2915Z" fill="#DC0000"/>
<path fill-rule="evenodd" clip-rule="evenodd" d="M294.551 18.0093C294.551 17.8321 294.492 17.6844 294.374 17.581C294.256 17.4776 294.078 17.4332 293.842 17.4332H293.207V18.6002H293.842C294.078 18.6002 294.256 18.5558 294.374 18.4524C294.492 18.349 294.551 18.2013 294.551 18.0241V18.0093ZM294.551 19.8852L293.96 19.0285C293.96 19.0285 293.901 19.0285 293.842 19.0285H293.192V19.8705H292.646V16.9458H293.842C294.093 16.9458 294.315 16.9901 294.507 17.0787C294.684 17.1526 294.832 17.2855 294.935 17.4332C295.038 17.5957 295.083 17.773 295.083 17.9945C295.083 18.2161 295.038 18.4081 294.92 18.5558C294.817 18.7183 294.654 18.8365 294.462 18.9103L295.127 19.8705H294.536L294.551 19.8852Z" fill="#DC0000"/>
</svg>
